<svg width="40" height="40" viewBox="0 0 40 40" fill="none" xmlns="http://www.w3.org/2000/svg">
<path d="M31.6667 21.6666C31.2247 21.6666 30.8008 21.8422 30.4882 22.1548C30.1756 22.4673 30 22.8913 30 23.3333V23.9666L27.5334 21.4999C26.6624 20.6359 25.4853 20.151 24.2584 20.151C23.0315 20.151 21.8543 20.6359 20.9834 21.4999L19.8167 22.6666L15.6834 18.5333C14.8002 17.6926 13.6277 17.2238 12.4084 17.2238C11.1891 17.2238 10.0165 17.6926 9.13337 18.5333L6.66671 20.9999V11.6666C6.66671 11.2246 6.8423 10.8007 7.15486 10.4881C7.46742 10.1755 7.89135 9.99995 8.33337 9.99995H20C20.4421 9.99995 20.866 9.82435 21.1786 9.51179C21.4911 9.19923 21.6667 8.77531 21.6667 8.33328C21.6667 7.89125 21.4911 7.46733 21.1786 7.15477C20.866 6.84221 20.4421 6.66662 20 6.66662H8.33337C7.00729 6.66662 5.73552 7.1934 4.79784 8.13108C3.86016 9.06876 3.33337 10.3405 3.33337 11.6666V31.6666C3.33337 32.9927 3.86016 34.2645 4.79784 35.2021C5.73552 36.1398 7.00729 36.6666 8.33337 36.6666H28.3334C29.6595 36.6666 30.9312 36.1398 31.8689 35.2021C32.8066 34.2645 33.3334 32.9927 33.3334 31.6666V23.3333C33.3334 22.8913 33.1578 22.4673 32.8452 22.1548C32.5327 21.8422 32.1087 21.6666 31.6667 21.6666ZM8.33337 33.3333C7.89135 33.3333 7.46742 33.1577 7.15486 32.8451C6.8423 32.5326 6.66671 32.1086 6.66671 31.6666V25.7166L11.5 20.8833C11.7449 20.6499 12.0701 20.5198 12.4084 20.5198C12.7466 20.5198 13.0719 20.6499 13.3167 20.8833L18.6 26.1666L25.7667 33.3333H8.33337ZM30 31.6666C29.9976 31.9857 29.8924 32.2954 29.7 32.5499L22.1834 24.9999L23.35 23.8333C23.4695 23.7113 23.6122 23.6144 23.7696 23.5483C23.927 23.4822 24.096 23.4481 24.2667 23.4481C24.4374 23.4481 24.6065 23.4822 24.7639 23.5483C24.9213 23.6144 25.0639 23.7113 25.1834 23.8333L30 28.6833V31.6666ZM37.85 7.14995L32.85 2.14995C32.6915 1.99821 32.5046 1.87927 32.3 1.79995C31.8943 1.63325 31.4391 1.63325 31.0334 1.79995C30.8288 1.87927 30.6419 1.99821 30.4834 2.14995L25.4834 7.14995C25.1695 7.46379 24.9932 7.88945 24.9932 8.33328C24.9932 8.77712 25.1695 9.20278 25.4834 9.51661C25.7972 9.83045 26.2229 10.0068 26.6667 10.0068C27.1105 10.0068 27.5362 9.83045 27.85 9.51661L30 7.34995V16.6666C30 17.1086 30.1756 17.5326 30.4882 17.8451C30.8008 18.1577 31.2247 18.3333 31.6667 18.3333C32.1087 18.3333 32.5327 18.1577 32.8452 17.8451C33.1578 17.5326 33.3334 17.1086 33.3334 16.6666V7.34995L35.4834 9.51661C35.6383 9.67283 35.8226 9.79682 36.0257 9.88143C36.2288 9.96605 36.4467 10.0096 36.6667 10.0096C36.8867 10.0096 37.1046 9.96605 37.3077 9.88143C37.5108 9.79682 37.6951 9.67283 37.85 9.51661C38.0063 9.36168 38.1302 9.17734 38.2149 8.97424C38.2995 8.77114 38.343 8.5533 38.343 8.33328C38.343 8.11326 38.2995 7.89542 38.2149 7.69232C38.1302 7.48922 38.0063 7.30489 37.85 7.14995Z" fill="white"/>
</svg>
