<svg width="87" height="28" viewBox="0 0 87 28" fill="none" xmlns="http://www.w3.org/2000/svg">
<path d="M2.376 22C2.2 22 2.056 21.944 1.944 21.832C1.832 21.72 1.776 21.576 1.776 21.4V5.8C1.776 5.624 1.832 5.48 1.944 5.368C2.056 5.256 2.2 5.2 2.376 5.2H5.04C5.216 5.2 5.36 5.256 5.472 5.368C5.584 5.48 5.64 5.624 5.64 5.8V18.784H13.08C13.256 18.784 13.4 18.84 13.512 18.952C13.624 19.064 13.68 19.208 13.68 19.384V21.4C13.68 21.576 13.624 21.72 13.512 21.832C13.4 21.944 13.256 22 13.08 22H2.376ZM44.5581 26.56C44.3981 26.56 44.2621 26.504 44.1501 26.392C44.0381 26.28 43.9821 26.136 43.9821 25.96V20.584C43.5981 21.096 43.1021 21.504 42.4941 21.808C41.9021 22.096 41.1981 22.24 40.3821 22.24C39.5661 22.24 38.8461 22.104 38.2221 21.832C37.5981 21.56 37.0701 21.176 36.6381 20.68C36.2061 20.184 35.8781 19.592 35.6541 18.904C35.4301 18.216 35.3021 17.464 35.2701 16.648C35.2541 16.328 35.2461 16.032 35.2461 15.76C35.2461 15.488 35.2541 15.2 35.2701 14.896C35.3021 14.032 35.4301 13.256 35.6541 12.568C35.8941 11.88 36.2221 11.296 36.6381 10.816C37.0701 10.32 37.5981 9.944 38.2221 9.688C38.8461 9.416 39.5661 9.28 40.3821 9.28C41.2941 9.28 42.0541 9.448 42.6621 9.784C43.2861 10.104 43.7821 10.52 44.1501 11.032V10.12C44.1501 9.944 44.2061 9.8 44.3181 9.688C44.4301 9.576 44.5741 9.52 44.7501 9.52H47.0301C47.2061 9.52 47.3501 9.576 47.4621 9.688C47.5741 9.8 47.6301 9.944 47.6301 10.12V25.96C47.6301 26.136 47.5741 26.28 47.4621 26.392C47.3501 26.504 47.2061 26.56 47.0301 26.56H44.5581ZM41.4621 19.36C42.0381 19.36 42.5021 19.232 42.8541 18.976C43.2221 18.72 43.4941 18.4 43.6701 18.016C43.8621 17.616 43.9661 17.192 43.9821 16.744C43.9981 16.44 44.0061 16.136 44.0061 15.832C44.0061 15.528 43.9981 15.232 43.9821 14.944C43.9661 14.464 43.8701 14.016 43.6941 13.6C43.5341 13.184 43.2701 12.84 42.9021 12.568C42.5501 12.296 42.0701 12.16 41.4621 12.16C40.8701 12.16 40.3901 12.296 40.0221 12.568C39.6701 12.824 39.4141 13.168 39.2541 13.6C39.1101 14.032 39.0221 14.504 38.9901 15.016C38.9581 15.512 38.9581 16.008 38.9901 16.504C39.0221 17.016 39.1101 17.488 39.2541 17.92C39.4141 18.352 39.6701 18.704 40.0221 18.976C40.3901 19.232 40.8701 19.36 41.4621 19.36ZM56.4398 22.24C55.5118 22.24 54.6878 22.032 53.9678 21.616C53.2638 21.184 52.7118 20.568 52.3118 19.768C51.9278 18.952 51.7358 17.968 51.7358 16.816V10.12C51.7358 9.944 51.7918 9.8 51.9038 9.688C52.0158 9.576 52.1518 9.52 52.3118 9.52H54.8558C55.0318 9.52 55.1758 9.576 55.2878 9.688C55.3998 9.8 55.4558 9.944 55.4558 10.12V16.672C55.4558 18.464 56.2398 19.36 57.8078 19.36C58.5598 19.36 59.1518 19.128 59.5838 18.664C60.0318 18.184 60.2558 17.52 60.2558 16.672V10.12C60.2558 9.944 60.3118 9.8 60.4238 9.688C60.5358 9.576 60.6798 9.52 60.8558 9.52H63.3998C63.5598 9.52 63.6958 9.576 63.8078 9.688C63.9198 9.8 63.9758 9.944 63.9758 10.12V21.4C63.9758 21.576 63.9198 21.72 63.8078 21.832C63.6958 21.944 63.5598 22 63.3998 22H61.0478C60.8718 22 60.7278 21.944 60.6158 21.832C60.5038 21.72 60.4478 21.576 60.4478 21.4V20.464C60.0318 21.04 59.4958 21.48 58.8398 21.784C58.1838 22.088 57.3838 22.24 56.4398 22.24ZM73.7644 22.24C71.9244 22.24 70.4604 21.728 69.3724 20.704C68.3004 19.68 67.7324 18.192 67.6684 16.24C67.6684 16.112 67.6684 15.944 67.6684 15.736C67.6684 15.512 67.6684 15.336 67.6684 15.208C67.7324 13.976 68.0124 12.92 68.5084 12.04C69.0044 11.144 69.7004 10.464 70.5964 10C71.4924 9.52 72.5404 9.28 73.7404 9.28C75.0844 9.28 76.2044 9.56 77.1004 10.12C78.0124 10.664 78.6924 11.416 79.1404 12.376C79.6044 13.32 79.8364 14.408 79.8364 15.64V16.192C79.8364 16.352 79.7724 16.488 79.6444 16.6C79.5324 16.712 79.3964 16.768 79.2364 16.768H71.3884C71.3884 16.784 71.3884 16.816 71.3884 16.864C71.3884 16.896 71.3884 16.928 71.3884 16.96C71.4044 17.472 71.5004 17.944 71.6764 18.376C71.8684 18.792 72.1324 19.128 72.4684 19.384C72.8204 19.64 73.2364 19.768 73.7164 19.768C74.1164 19.768 74.4444 19.712 74.7004 19.6C74.9564 19.488 75.1644 19.352 75.3244 19.192C75.5004 19.032 75.6284 18.896 75.7084 18.784C75.8524 18.624 75.9644 18.528 76.0444 18.496C76.1404 18.448 76.2844 18.424 76.4764 18.424H78.9724C79.1324 18.424 79.2604 18.472 79.3564 18.568C79.4684 18.648 79.5164 18.768 79.5004 18.928C79.4844 19.184 79.3484 19.504 79.0924 19.888C78.8524 20.256 78.4924 20.624 78.0124 20.992C77.5324 21.344 76.9324 21.64 76.2124 21.88C75.5084 22.12 74.6924 22.24 73.7644 22.24ZM71.3884 14.584H76.0924V14.536C76.0924 13.96 75.9964 13.464 75.8044 13.048C75.6284 12.616 75.3644 12.28 75.0124 12.04C74.6604 11.8 74.2364 11.68 73.7404 11.68C73.2444 11.68 72.8204 11.8 72.4684 12.04C72.1164 12.28 71.8444 12.616 71.6524 13.048C71.4764 13.464 71.3884 13.96 71.3884 14.536V14.584Z" fill="white"/>
<path d="M24 5.66667C19.405 5.66667 15.6667 9.405 15.6667 14C15.6667 18.595 19.405 22.3333 24 22.3333C28.595 22.3333 32.3334 18.595 32.3334 14C32.3334 9.405 28.595 5.66667 24 5.66667ZM24 20.6667C20.3242 20.6667 17.3334 17.6758 17.3334 14C17.3334 10.3242 20.3242 7.33334 24 7.33334C27.6759 7.33334 30.6667 10.3242 30.6667 14C30.6667 17.6758 27.6759 20.6667 24 20.6667Z" fill="white"/>
<path d="M20.6667 17.3333L25.6592 15.6667L27.3334 10.6667L22.3334 12.3333L20.6667 17.3333Z" fill="#FF6B00"/>
<rect x="83" y="9" width="3" height="13" rx="1" fill="white"/>
<path d="M86.2677 6.48316C86.7366 5.99057 87 5.32264 87 4.62619C87 3.92975 86.7366 3.26182 86.2677 2.76923C86.0357 2.52537 85.7601 2.33191 85.4568 2.19992C85.1534 2.06794 84.8283 2 84.5 2C84.1717 2 83.8466 2.06794 83.5432 2.19992C83.2399 2.33191 82.9643 2.52537 82.7323 2.76923C82.2634 3.26182 82 3.92975 82 4.62619C82 5.32264 82.2634 5.99057 82.7323 6.48316L83.2754 7.04527L84.005 7.78963L84.0525 7.83388C84.3293 8.06937 84.7346 8.05437 84.9953 7.78963L85.8649 6.9009L86.2677 6.48316ZM84.5 5.75005C84.2159 5.75005 83.9434 5.63152 83.7424 5.42055C83.5415 5.20957 83.4286 4.92343 83.4286 4.62507C83.4286 4.32671 83.5415 4.04057 83.7424 3.82959C83.9434 3.61862 84.2159 3.50009 84.5 3.50009C84.7841 3.50009 85.0566 3.61862 85.2576 3.82959C85.4585 4.04057 85.5714 4.32671 85.5714 4.62507C85.5714 4.92343 85.4585 5.20957 85.2576 5.42055C85.0566 5.63152 84.7841 5.75005 84.5 5.75005Z" fill="#FF6B00"/>
</svg>
