<svg width="512" height="58" viewBox="0 0 512 58" fill="none" xmlns="http://www.w3.org/2000/svg">
<path d="M65.8802 30.8009C68.7247 31.3311 71.0629 32.7531 72.8949 35.0668C74.7269 37.3804 75.6429 40.0315 75.6429 43.02C75.6429 45.7193 74.968 48.1053 73.6181 50.178C72.3164 52.2025 70.4121 53.7931 67.9051 54.95C65.3981 56.1068 62.4331 56.6852 59.0102 56.6852H37.2429V6.21802H58.0701C61.493 6.21802 64.4339 6.77234 66.8927 7.88098C69.3996 8.98962 71.2798 10.5321 72.5333 12.5083C73.835 14.4846 74.4859 16.726 74.4859 19.2325C74.4859 22.1728 73.6904 24.6311 72.0994 26.6074C70.5567 28.5836 68.4836 29.9815 65.8802 30.8009ZM47.3672 27.0412H56.6237C59.0343 27.0412 60.8904 26.5109 62.1921 25.4505C63.4938 24.3419 64.1446 22.7753 64.1446 20.7508C64.1446 18.7264 63.4938 17.1598 62.1921 16.0512C60.8904 14.9425 59.0343 14.3882 56.6237 14.3882H47.3672V27.0412ZM57.5638 48.4427C60.0226 48.4427 61.9269 47.8643 63.2768 46.7075C64.6749 45.5506 65.374 43.9118 65.374 41.7909C65.374 39.6218 64.6508 37.9348 63.2045 36.7297C61.7582 35.4765 59.8056 34.8498 57.3469 34.8498H47.3672V48.4427H57.5638Z" fill="white"/>
<path d="M93.8362 22.8476C95.1378 20.7267 96.8252 19.0638 98.8983 17.8587C101.02 16.6537 103.43 16.0512 106.13 16.0512V26.6797H103.454C100.272 26.6797 97.8618 27.4268 96.2226 28.921C94.6316 30.4153 93.8362 33.0182 93.8362 36.7297V56.6852H83.7119V16.6296H93.8362V22.8476Z" fill="white"/>
<path d="M110.346 36.5128C110.346 32.4639 111.141 28.8728 112.732 25.7397C114.371 22.6066 116.565 20.1965 119.313 18.5095C122.109 16.8224 125.219 15.9789 128.642 15.9789C131.631 15.9789 134.234 16.5814 136.452 17.7864C138.718 18.9915 140.526 20.5098 141.876 22.3415V16.6296H152.072V56.6852H141.876V50.8287C140.574 52.7086 138.766 54.2751 136.452 55.5284C134.186 56.7334 131.559 57.336 128.569 57.336C125.195 57.336 122.109 56.4683 119.313 54.7331C116.565 52.9978 114.371 50.5636 112.732 47.4305C111.141 44.2492 110.346 40.61 110.346 36.5128ZM141.876 36.6574C141.876 34.1991 141.394 32.1024 140.429 30.3671C139.465 28.5836 138.163 27.234 136.524 26.3181C134.885 25.3541 133.125 24.8721 131.245 24.8721C129.365 24.8721 127.629 25.33 126.038 26.2458C124.447 27.1617 123.146 28.5113 122.133 30.2948C121.169 32.03 120.687 34.1027 120.687 36.5128C120.687 38.9229 121.169 41.0438 122.133 42.8754C123.146 44.6589 124.447 46.0326 126.038 46.9967C127.678 47.9607 129.413 48.4427 131.245 48.4427C133.125 48.4427 134.885 47.9848 136.524 47.069C138.163 46.1049 139.465 44.7553 140.429 43.02C141.394 41.2366 141.876 39.1157 141.876 36.6574Z" fill="white"/>
<path d="M167.095 11.8576C165.311 11.8576 163.817 11.3033 162.611 10.1947C161.454 9.03782 160.876 7.61587 160.876 5.92881C160.876 4.24175 161.454 2.8439 162.611 1.73526C163.817 0.57842 165.311 0 167.095 0C168.879 0 170.349 0.57842 171.506 1.73526C172.711 2.8439 173.314 4.24175 173.314 5.92881C173.314 7.61587 172.711 9.03782 171.506 10.1947C170.349 11.3033 168.879 11.8576 167.095 11.8576ZM172.085 16.6296V56.6852H161.96V16.6296H172.085Z" fill="white"/>
<path d="M192.212 3.18132V56.6852H182.088V3.18132H192.212Z" fill="white"/>
<path d="M212.339 3.18132V56.6852H202.215V3.18132H212.339Z" fill="white"/>
<path d="M227.476 11.8576C225.692 11.8576 224.198 11.3033 222.993 10.1947C221.836 9.03782 221.257 7.61587 221.257 5.92881C221.257 4.24175 221.836 2.8439 222.993 1.73526C224.198 0.57842 225.692 0 227.476 0C229.26 0 230.731 0.57842 231.888 1.73526C233.093 2.8439 233.695 4.24175 233.695 5.92881C233.695 7.61587 233.093 9.03782 231.888 10.1947C230.731 11.3033 229.26 11.8576 227.476 11.8576ZM232.466 16.6296V56.6852H222.342V16.6296H232.466Z" fill="white"/>
<path d="M264.67 16.0512C269.443 16.0512 273.3 17.5695 276.241 20.6062C279.182 23.5947 280.652 27.7883 280.652 33.1869V56.6852H270.528V34.5606C270.528 31.3793 269.732 28.9451 268.141 27.2581C266.55 25.5228 264.381 24.6552 261.633 24.6552C258.837 24.6552 256.619 25.5228 254.98 27.2581C253.389 28.9451 252.593 31.3793 252.593 34.5606V56.6852H242.469V16.6296H252.593V21.6185C253.943 19.8832 255.655 18.5336 257.728 17.5695C259.849 16.5573 262.163 16.0512 264.67 16.0512Z" fill="white"/>
<path d="M287.821 31.3793C287.821 26.4145 288.93 21.98 291.147 18.0756C293.413 14.1231 296.475 11.0623 300.332 8.89322C304.237 6.67594 308.6 5.5673 313.421 5.5673C319.062 5.5673 324.003 7.01335 328.246 9.90546C332.488 12.7976 335.453 16.7983 337.141 21.9077H325.498C324.341 19.4976 322.701 17.69 320.58 16.485C318.507 15.2799 316.097 14.6774 313.349 14.6774C310.408 14.6774 307.78 15.3763 305.466 16.7742C303.2 18.1238 301.416 20.0519 300.115 22.5584C298.861 25.0649 298.234 28.0052 298.234 31.3793C298.234 34.7052 298.861 37.6455 300.115 40.2002C301.416 42.7067 303.2 44.6589 305.466 46.0567C307.78 47.4064 310.408 48.0812 313.349 48.0812C316.097 48.0812 318.507 47.4787 320.58 46.2737C322.701 45.0204 324.341 43.1887 325.498 40.7787H337.141C335.453 45.9362 332.488 49.9611 328.246 52.8532C324.051 55.6971 319.11 57.119 313.421 57.119C308.6 57.119 304.237 56.0345 300.332 53.8654C296.475 51.6481 293.413 48.5873 291.147 44.683C288.93 40.7787 287.821 36.3441 287.821 31.3793Z" fill="white"/>
<path d="M363.578 57.336C359.721 57.336 356.25 56.4924 353.164 54.8054C350.079 53.0701 347.644 50.6359 345.86 47.5028C344.125 44.3697 343.257 40.7546 343.257 36.6574C343.257 32.5603 344.149 28.9451 345.933 25.812C347.765 22.6789 350.248 20.2688 353.381 18.5818C356.515 16.8465 360.01 15.9789 363.867 15.9789C367.724 15.9789 371.219 16.8465 374.353 18.5818C377.487 20.2688 379.946 22.6789 381.729 25.812C383.561 28.9451 384.477 32.5603 384.477 36.6574C384.477 40.7546 383.537 44.3697 381.657 47.5028C379.825 50.6359 377.318 53.0701 374.136 54.8054C371.002 56.4924 367.483 57.336 363.578 57.336ZM363.578 48.515C365.41 48.515 367.121 48.0812 368.712 47.2136C370.352 46.2978 371.653 44.9481 372.617 43.1646C373.582 41.3812 374.064 39.2121 374.064 36.6574C374.064 32.8495 373.051 29.9333 371.027 27.9088C369.05 25.8361 366.615 24.7998 363.723 24.7998C360.83 24.7998 358.395 25.8361 356.419 27.9088C354.49 29.9333 353.526 32.8495 353.526 36.6574C353.526 40.4653 354.466 43.4057 356.346 45.4783C358.275 47.5028 360.685 48.515 363.578 48.515Z" fill="white"/>
<path d="M389.301 36.5128C389.301 32.4639 390.096 28.8728 391.687 25.7397C393.326 22.6066 395.544 20.1965 398.34 18.5095C401.136 16.8224 404.246 15.9789 407.669 15.9789C410.272 15.9789 412.755 16.5573 415.117 17.7141C417.48 18.8228 419.36 20.317 420.758 22.1969V3.18132H431.027V56.6852H420.758V50.7564C419.505 52.7327 417.745 54.3233 415.479 55.5284C413.213 56.7334 410.586 57.336 407.597 57.336C404.222 57.336 401.136 56.4683 398.34 54.7331C395.544 52.9978 393.326 50.5636 391.687 47.4305C390.096 44.2492 389.301 40.61 389.301 36.5128ZM420.83 36.6574C420.83 34.1991 420.348 32.1024 419.384 30.3671C418.42 28.5836 417.118 27.234 415.479 26.3181C413.84 25.3541 412.08 24.8721 410.2 24.8721C408.32 24.8721 406.584 25.33 404.993 26.2458C403.402 27.1617 402.101 28.5113 401.088 30.2948C400.124 32.03 399.642 34.1027 399.642 36.5128C399.642 38.9229 400.124 41.0438 401.088 42.8754C402.101 44.6589 403.402 46.0326 404.993 46.9967C406.632 47.9607 408.368 48.4427 410.2 48.4427C412.08 48.4427 413.84 47.9848 415.479 47.069C417.118 46.1049 418.42 44.7553 419.384 43.02C420.348 41.2366 420.83 39.1157 420.83 36.6574Z" fill="white"/>
<path d="M478.158 35.7898C478.158 37.2358 478.062 38.5373 477.869 39.6941H448.581C448.822 42.5862 449.834 44.8517 451.618 46.4906C453.402 48.1294 455.595 48.9489 458.199 48.9489C461.959 48.9489 464.635 47.3341 466.226 44.1046H477.146C475.989 47.9607 473.771 51.142 470.493 53.6485C467.214 56.1068 463.189 57.336 458.416 57.336C454.559 57.336 451.088 56.4924 448.002 54.8054C444.965 53.0701 442.578 50.6359 440.843 47.5028C439.156 44.3697 438.312 40.7546 438.312 36.6574C438.312 32.5121 439.156 28.8728 440.843 25.7397C442.53 22.6066 444.893 20.1965 447.93 18.5095C450.967 16.8224 454.462 15.9789 458.416 15.9789C462.224 15.9789 465.623 16.7983 468.612 18.4372C471.65 20.076 473.988 22.4138 475.627 25.4505C477.314 28.439 478.158 31.8854 478.158 35.7898ZM467.672 32.8977C467.624 30.2948 466.684 28.2221 464.852 26.6797C463.02 25.089 460.778 24.2937 458.127 24.2937C455.62 24.2937 453.498 25.0649 451.763 26.6074C450.075 28.1016 449.039 30.1984 448.653 32.8977H467.672Z" fill="white"/>
<path d="M15.765 47.1413L0 30.9455L15.765 14.7497H28.4927L12.7277 30.9455L28.4927 47.1413H15.765Z" fill="white"/>
<path d="M483.435 14.7497H496.235L512 30.9455L496.235 47.1413H483.435L499.272 30.9455L483.435 14.7497Z" fill="white"/>
</svg>
