<svg width="615" height="95" viewBox="0 0 615 95" fill="none" xmlns="http://www.w3.org/2000/svg">
<path d="M564.636 8L532.126 47.59L563.245 85.487" stroke="#CE1743" stroke-width="15.7778" stroke-linecap="round"/>
<path d="M564.636 8L532.126 47.59L563.245 85.487" stroke="#0043C0" stroke-width="15.7778" stroke-linecap="round"/>
<path d="M606.683 8.99805L574.173 48.588L605.292 86.484" stroke="#CE1743" stroke-width="15.7778" stroke-linecap="round"/>
<path d="M606.683 8.99805L574.173 48.588L605.292 86.484" stroke="#0043C0" stroke-width="15.7778" stroke-linecap="round"/>
<path d="M55.84 16.808V27.815H34.332V86.786H21.508V27.815H0V16.808H55.84ZM65.545 86.786V16.808H110.48V27.613H78.268V44.88H106.945V55.483H78.268V75.981H112.903V86.786H65.545ZM153.248 88.301C147.998 88.301 143.285 87.493 139.112 85.877C134.938 84.262 131.404 81.905 128.509 78.809C125.614 75.645 123.393 71.808 121.844 67.297C120.296 62.787 119.522 57.603 119.522 51.747C119.522 45.89 120.397 40.706 122.147 36.196C123.965 31.686 126.422 27.882 129.519 24.786C132.615 21.622 136.251 19.232 140.424 17.616C144.598 16.001 149.075 15.193 153.854 15.193C156.749 15.193 159.374 15.428 161.731 15.9C164.087 16.304 166.14 16.775 167.89 17.313C169.641 17.852 171.088 18.424 172.232 19.03C173.377 19.636 174.185 20.073 174.656 20.343L170.92 30.743C169.304 29.734 166.981 28.791 163.952 27.916C160.99 26.973 157.759 26.502 154.258 26.502C151.229 26.502 148.402 27.041 145.776 28.118C143.151 29.128 140.862 30.676 138.91 32.763C137.025 34.85 135.544 37.475 134.467 40.639C133.39 43.803 132.851 47.472 132.851 51.646C132.851 55.348 133.255 58.748 134.063 61.844C134.938 64.941 136.251 67.634 138.001 69.923C139.751 72.144 141.973 73.895 144.665 75.174C147.358 76.385 150.589 76.991 154.359 76.991C158.87 76.991 162.538 76.554 165.366 75.678C168.193 74.736 170.381 73.861 171.929 73.053L175.363 83.454C174.555 83.992 173.444 84.531 172.03 85.069C170.684 85.608 169.068 86.146 167.183 86.685C165.299 87.156 163.178 87.527 160.822 87.796C158.466 88.132 155.941 88.301 153.248 88.301ZM229.658 16.808H242.381V86.786H229.658V55.786H199.264V86.786H186.54V16.808H199.264V44.779H229.658V16.808ZM274.366 16.808C275.847 19.366 277.496 22.497 279.314 26.199C281.131 29.902 282.983 33.806 284.868 37.913C286.752 41.952 288.604 46.092 290.421 50.333C292.306 54.507 294.023 58.378 295.571 61.945C297.119 58.378 298.802 54.507 300.62 50.333C302.438 46.092 304.289 41.952 306.174 37.913C308.059 33.806 309.91 29.902 311.728 26.199C313.545 22.497 315.195 19.366 316.676 16.808H328.187C328.793 21.925 329.365 27.377 329.904 33.167C330.442 38.889 330.913 44.779 331.317 50.838C331.789 56.829 332.192 62.888 332.529 69.014C332.933 75.073 333.27 80.997 333.539 86.786H321.018C320.748 78.64 320.412 70.259 320.008 61.643C319.671 53.026 319.133 44.678 318.392 36.6C317.652 38.148 316.776 40 315.767 42.154C314.757 44.308 313.68 46.664 312.535 49.222C311.391 51.713 310.213 54.305 309.001 56.998C307.857 59.69 306.712 62.316 305.568 64.874C304.491 67.365 303.481 69.721 302.539 71.942C301.596 74.096 300.788 75.948 300.115 77.496H290.623C289.95 75.948 289.142 74.063 288.2 71.841C287.257 69.62 286.214 67.264 285.069 64.773C283.992 62.215 282.848 59.589 281.636 56.897C280.492 54.204 279.347 51.612 278.203 49.121C277.059 46.63 275.981 44.308 274.972 42.154C273.962 39.932 273.087 38.081 272.346 36.6C271.606 44.678 271.034 53.026 270.63 61.643C270.293 70.259 269.99 78.64 269.721 86.786H257.2C257.469 80.997 257.772 75.005 258.108 68.812C258.512 62.619 258.916 56.493 259.32 50.434C259.791 44.308 260.296 38.384 260.835 32.662C261.373 26.94 261.946 21.655 262.551 16.808H274.366ZM394.811 86.786C393.869 84.026 392.892 81.3 391.883 78.607C390.873 75.914 389.897 73.154 388.954 70.327H359.469C358.526 73.154 357.55 75.948 356.54 78.708C355.598 81.401 354.655 84.093 353.713 86.786H340.485C343.11 79.314 345.601 72.413 347.957 66.086C350.313 59.758 352.602 53.766 354.824 48.112C357.113 42.457 359.368 37.071 361.589 31.955C363.811 26.839 366.1 21.79 368.456 16.808H380.472C382.828 21.79 385.117 26.839 387.339 31.955C389.56 37.071 391.782 42.457 394.003 48.112C396.292 53.766 398.614 59.758 400.971 66.086C403.394 72.413 405.919 79.314 408.544 86.786H394.811ZM374.212 30.339C372.663 33.907 370.879 38.249 368.86 43.366C366.907 48.482 364.854 54.036 362.7 60.027H385.723C383.569 54.036 381.482 48.448 379.462 43.265C377.443 38.081 375.693 33.773 374.212 30.339ZM436.676 16.102C446.774 16.102 454.482 17.953 459.8 21.655C465.185 25.358 467.878 31.013 467.878 38.62C467.878 48.112 463.199 54.54 453.842 57.906C455.121 59.455 456.568 61.34 458.184 63.561C459.8 65.783 461.449 68.206 463.132 70.832C464.815 73.39 466.431 76.049 467.979 78.809C469.527 81.501 470.907 84.161 472.119 86.786H457.881C456.602 84.363 455.222 81.939 453.741 79.516C452.26 77.025 450.745 74.635 449.197 72.346C447.716 69.99 446.235 67.802 444.754 65.783C443.273 63.696 441.893 61.844 440.614 60.229C439.671 60.296 438.864 60.33 438.19 60.33C437.517 60.33 436.878 60.33 436.272 60.33H430.112V86.786H417.389V17.818C420.486 17.145 423.784 16.707 427.285 16.505C430.785 16.236 433.916 16.102 436.676 16.102ZM437.585 27.108C434.892 27.108 432.401 27.209 430.112 27.411V50.03H435.666C438.763 50.03 441.489 49.862 443.845 49.525C446.201 49.189 448.154 48.583 449.702 47.708C451.318 46.832 452.529 45.654 453.337 44.173C454.145 42.692 454.549 40.807 454.549 38.519C454.549 36.364 454.145 34.547 453.337 33.066C452.529 31.585 451.351 30.407 449.803 29.532C448.322 28.656 446.538 28.051 444.451 27.714C442.364 27.31 440.075 27.108 437.585 27.108ZM523.784 86.786C522.034 84.093 520.014 81.266 517.725 78.304C515.437 75.342 513.013 72.481 510.455 69.721C507.964 66.961 505.372 64.335 502.68 61.844C499.987 59.354 497.328 57.2 494.702 55.382V86.786H481.979V16.808H494.702V45.688C496.924 43.467 499.246 41.11 501.67 38.62C504.093 36.061 506.483 33.503 508.839 30.945C511.263 28.32 513.552 25.795 515.706 23.372C517.86 20.948 519.812 18.761 521.563 16.808H536.81C534.589 19.366 532.233 22.026 529.742 24.786C527.251 27.546 524.693 30.339 522.067 33.167C519.442 35.927 516.783 38.687 514.09 41.447C511.465 44.207 508.873 46.832 506.315 49.323C509.142 51.477 512.003 54.002 514.898 56.897C517.86 59.724 520.755 62.787 523.582 66.086C526.41 69.317 529.102 72.716 531.66 76.284C534.286 79.785 536.676 83.285 538.83 86.786H523.784Z" fill="black"/>
</svg>
