<svg width="74" height="75" viewBox="0 0 74 75" fill="none" xmlns="http://www.w3.org/2000/svg">
<path d="M37 24.1667C29.6333 24.1667 23.6667 30.1334 23.6667 37.5C23.6667 44.8667 29.6333 50.8334 37 50.8334C44.3667 50.8334 50.3333 44.8667 50.3333 37.5C50.3333 30.1334 44.3667 24.1667 37 24.1667ZM66.8 34.1667C66.045 27.4071 63.0138 21.1052 58.2044 16.2957C53.3949 11.4862 47.0929 8.45508 40.3333 7.70004V0.833374H33.6667V7.70004C26.9071 8.45508 20.6051 11.4862 15.7956 16.2957C10.9862 21.1052 7.95504 27.4071 7.2 34.1667H0.333336V40.8334H7.2C7.95504 47.593 10.9862 53.8949 15.7956 58.7044C20.6051 63.5139 26.9071 66.545 33.6667 67.3V74.1667H40.3333V67.3C47.0929 66.545 53.3949 63.5139 58.2044 58.7044C63.0138 53.8949 66.045 47.593 66.8 40.8334H73.6667V34.1667H66.8ZM37 60.8334C24.1 60.8334 13.6667 50.4 13.6667 37.5C13.6667 24.6 24.1 14.1667 37 14.1667C49.9 14.1667 60.3333 24.6 60.3333 37.5C60.3333 50.4 49.9 60.8334 37 60.8334Z" fill="#FF6B00"/>
</svg>
